<svg xmlns="http://www.w3.org/2000/svg" height="40px" viewBox="0 -960 960 960" width="40px" fill="#000000">
  <path d="M280-200v-80h560v80H280Zm0-240v-80h560v80H280Zm0-240v-80h560v80H280ZM160-160q-17 0-28.5-11.5T120-200q0-17 11.5-28.5T160-240q17 0 28.5 11.5T200-200q0 17-11.5 28.5T160-160Zm0-240q-17 0-28.5-11.5T120-440q0-17 11.5-28.5T160-480q17 0 28.5 11.5T200-440q0 17-11.5 28.5T160-400Zm0-240q-17 0-28.5-11.5T120-680q0-17 11.5-28.5T160-720q17 0 28.5 11.5T200-680q0 17-11.5 28.5T160-640Z"/>
</svg>
