<svg xmlns="http://www.w3.org/2000/svg" height="40px" viewBox="0 -960 960 960" width="40px" fill="#000000">
  <path d="M280-160q-33 0-56.5-23.5T200-240q0-33 23.5-56.5T280-320q33 0 56.5 23.5T360-240q0 33-23.5 56.5T280-160Zm400 0q-33 0-56.5-23.5T600-240q0-33 23.5-56.5T680-320q33 0 56.5 23.5T760-240q0 33-23.5 56.5T680-160ZM280-480q-33 0-56.5-23.5T200-560q0-33 23.5-56.5T280-640q33 0 56.5 23.5T360-560q0 33-23.5 56.5T280-480Zm400 0q-33 0-56.5-23.5T600-560q0-33 23.5-56.5T680-640q33 0 56.5 23.5T760-560q0 33-23.5 56.5T680-480ZM280-800q-33 0-56.5-23.5T200-880q0-33 23.5-56.5T280-960q33 0 56.5 23.5T360-880q0 33-23.5 56.5T280-800Zm400 0q-33 0-56.5-23.5T600-880q0-33 23.5-56.5T680-960q33 0 56.5 23.5T760-880q0 33-23.5 56.5T680-800ZM120-200v-80h80v80h-80Zm160 0v-80h80v80h-80Zm160-80v-80h-80v-80h80v-80h80v80h80v80h-80v80h-80Zm240 0v-80h80v80h-80Zm160 0v-80h80v80h-80ZM200-440v-80h80v80h-80Zm160-80v-80h-80v-80h80v-80h80v80h80v80h-80v80h-80Zm240 0v-80h80v80h-80Zm160 0v-80h80v80h-80ZM200-680v-80h80v80h-80Zm160-80v-80h-80v-80h80v-80h80v80h80v80h-80v80h-80Zm240 0v-80h80v80h-80Zm160 0v-80h80v80h-80Z"/>
</svg>
